<svg xmlns="http://www.w3.org/2000/svg" version="1.1" xmlns:xlink="http://www.w3.org/1999/xlink" xmlns:svgjs="http://svgjs.dev/svgjs" width="1500" height="1500" viewBox="0 0 1500 1500"><rect width="1500" height="1500" fill="#000000"></rect><g transform="matrix(0.6666666666666666,0,0,0.6666666666666666,249.78425655976667,249.78425655976673)"><svg viewBox="0 0 343 343" data-background-color="#1ebbd7" preserveAspectRatio="xMidYMid meet" height="1500" width="1500" xmlns="http://www.w3.org/2000/svg" xmlns:xlink="http://www.w3.org/1999/xlink"><g id="tight-bounds" transform="matrix(1,0,0,1,0.0740000000000407,0.07400000000001228)"><svg viewBox="0 0 342.85155851775386 342.85155851775386" height="342.85155851775386" width="342.85155851775386"><g><svg></svg></g><g><svg viewBox="0 0 342.85155851775386 342.85155851775386" height="342.85155851775386" width="342.85155851775386"><g><path d="M0 171.426c0-94.676 76.75-171.426 171.426-171.426 94.676 0 171.426 76.75 171.426 171.426 0 94.676-76.75 171.426-171.426 171.426-94.676 0-171.426-76.75-171.426-171.426zM171.426 340.759c93.52 0 169.334-75.813 169.333-169.333 0-93.52-75.813-169.334-169.333-169.334-93.52 0-169.334 75.813-169.334 169.334 0 93.52 75.813 169.334 169.334 169.333z" data-fill-palette-color="tertiary" fill="#ffffff" stroke="transparent"></path><ellipse rx="164.56874808852186" ry="164.56874808852186" cx="171.42577925887693" cy="171.42577925887693" fill="#ffffff" stroke="transparent" stroke-width="0" fill-opacity="1" data-fill-palette-color="tertiary"></ellipse></g><g transform="matrix(1,0,0,1,64.84655864529837,117.45788352534437)"><svg viewBox="0 0 213.1584412271571 107.93579146706512" height="107.93579146706512" width="213.1584412271571"><g><svg viewBox="0 0 213.1584412271571 107.93579146706512" height="107.93579146706512" width="213.1584412271571"><g><svg viewBox="0 0 213.1584412271571 107.93579146706512" height="107.93579146706512" width="213.1584412271571"><g transform="matrix(1,0,0,1,0,64.92197000957565)"><svg viewBox="0 0 213.1584412271571 43.01382145748948" height="43.01382145748948" width="213.1584412271571"><g id="textblocktransform"><svg viewBox="0 0 213.1584412271571 43.01382145748948" height="43.01382145748948" width="213.1584412271571" id="textblock"><g><svg viewBox="0 0 213.1584412271571 23.19959993953294" height="23.19959993953294" width="213.1584412271571"><g transform="matrix(1,0,0,1,0,0)"><svg width="213.1584412271571" viewBox="1.95 -34.95 329.82 35.900000000000006" height="23.19959993953294" data-palette-color="#1ebbd7"><path d="M31.2-29.3L28.35-26.4 27.65-26.45Q26.4-29.85 24.1-31.38 21.8-32.9 18.7-32.9L18.7-32.9Q15.3-32.9 12.95-31.55 10.6-30.2 9.15-27.9 7.7-25.6 7.05-22.83 6.4-20.05 6.4-17.2L6.4-17.2Q6.4-14.9 7.08-12.65 7.75-10.4 8.7-8.65 9.65-6.9 10.45-6.05L10.45-6.05Q12.5-4 14.43-2.95 16.35-1.9 19.4-1.9L19.4-1.9Q21.95-1.9 24.3-2.88 26.65-3.85 28.75-5.25L28.75-5.25 29.6-3.8Q26.9-1.95 23.9-0.6 20.9 0.75 17.65 0.75L17.65 0.75Q14.7 0.75 11.8-0.03 8.9-0.8 6.75-2.95L6.75-2.95Q4.15-5.6 3.05-9.13 1.95-12.65 1.95-16.3L1.95-16.3Q1.95-19.9 2.93-23.4 3.9-26.9 6.5-29.5L6.5-29.5Q9.25-32.25 12.88-33.6 16.5-34.95 20.4-34.95L20.4-34.95Q23.7-34.95 26.48-33.73 29.25-32.5 31.2-29.3L31.2-29.3ZM50.9-21.55L50.9-21.55 53.55-23.1 53.8-22.85Q53.5-17.4 53.5-11.95L53.5-11.95Q53.5-10.8 53.42-9.2 53.35-7.6 53.45-6.1 53.55-4.6 54-3.6 54.45-2.6 55.45-2.6L55.45-2.6Q56-2.6 56.95-2.9 57.9-3.2 58.7-3.5L58.7-3.5 59.05-2.3Q58.05-1.7 56.9-1.03 55.75-0.35 54.65 0.13 53.55 0.6 52.75 0.6L52.75 0.6Q51.35 0.6 50.75-0.25 50.15-1.1 49.9-2.35L49.9-2.35 49.15-2.55Q47.3-1.35 45.25-0.38 43.2 0.6 41 0.6L41 0.6Q38.9 0.6 37.5-0.3 36.1-1.2 35.25-2.65 34.4-4.1 34.02-5.83 33.65-7.55 33.65-9.25L33.65-9.25Q33.65-11.9 34.32-14.4 35-16.9 36.42-18.93 37.85-20.95 40.1-22.13 42.35-23.3 45.55-23.3L45.55-23.3Q46.75-23.3 48.22-22.85 49.7-22.4 50.9-21.55ZM49.8-4.95L49.8-4.95 49.8-16.45Q49.8-17.45 49.7-18.35 49.6-19.25 49-19.9L49-19.9Q48.35-20.6 47.45-21.08 46.55-21.55 45.6-21.55L45.6-21.55Q42.85-21.55 40.85-19.65L40.85-19.65Q40-18.85 39.12-16.7 38.25-14.55 38.15-10.75L38.15-10.75Q38.1-9.2 38.4-7.63 38.7-6.05 39.55-4.75L39.55-4.75Q40.35-3.5 41.72-3.1 43.1-2.7 44.5-2.7L44.5-2.7Q45.95-2.7 47.32-3.4 48.7-4.1 49.8-4.95ZM79.34-19.4L76.65-16.95 76.05-17.2Q75.84-18.25 75.25-19.18 74.65-20.1 73.4-20.1L73.4-20.1Q71.84-20.1 70.9-19.05 69.95-18 69.55-17L69.55-17Q69.2-16.2 69.15-14.7 69.09-13.2 69.15-11.53 69.2-9.85 69.2-8.5L69.2-8.5Q69.2-4.75 69.34-0.9L69.34-0.9 65.84 0.15 65.09-0.3Q65.34-2.95 65.52-6.05 65.7-9.15 65.7-12.15L65.7-12.15Q65.7-14.1 65.64-16.05 65.59-18 65.14-19.3 64.7-20.6 63.55-20.6L63.55-20.6Q62.7-20.6 61.65-20.1 60.59-19.6 59.65-19.05L59.65-19.05 59.05-19.9Q60.05-20.7 61.22-21.55 62.4-22.4 63.59-23.03 64.8-23.65 65.8-23.65L65.8-23.65Q67.5-23.65 68.34-22.65 69.2-21.65 69.4-20.05L69.4-20.05 69.9-19.85Q70.65-20.55 71.57-21.38 72.5-22.2 73.5-22.78 74.5-23.35 75.4-23.35L75.4-23.35Q78.95-23.35 79.34-19.4L79.34-19.4ZM100.69-15.95L100.69-15.95 86.59-9.85Q86.74-8.3 87.42-6.65 88.09-5 89.47-3.9 90.84-2.8 93.04-2.8L93.04-2.8Q95.09-2.8 97.07-3.85 99.04-4.9 100.74-6.2L100.74-6.2 101.29-6.1 101.94-5.2Q100.39-3.75 98.57-2.43 96.74-1.1 94.72-0.25 92.69 0.6 90.54 0.6L90.54 0.6Q88.04 0.6 86.42-0.45 84.79-1.5 83.89-3.23 82.99-4.95 82.62-7.08 82.24-9.2 82.24-11.3L82.24-11.3Q82.24-13.5 82.79-15.6 83.34-17.7 84.79-19.4L84.79-19.4Q86.64-21.55 89.22-22.73 91.79-23.9 94.64-23.9L94.64-23.9Q97.89-23.9 99.82-21.9 101.74-19.9 101.74-17L101.74-17Q101.74-16.55 101.42-16.35 101.09-16.15 100.69-15.95ZM88.69-19.8L88.69-19.8Q87.24-18.25 86.82-16.55 86.39-14.85 86.39-13L86.39-13Q86.39-12.8 86.42-12.58 86.44-12.35 86.49-12.1L86.49-12.1 86.69-11.9 96.79-15.9Q97.04-16 97.24-16.3 97.44-16.6 97.44-17.2L97.44-17.2Q97.44-18.25 96.89-19.35 96.34-20.45 95.32-21.18 94.29-21.9 92.89-21.9L92.89-21.9Q91.64-21.9 90.57-21.35 89.49-20.8 88.69-19.8ZM123.79-15.95L123.79-15.95 109.69-9.85Q109.84-8.3 110.52-6.65 111.19-5 112.56-3.9 113.94-2.8 116.14-2.8L116.14-2.8Q118.19-2.8 120.16-3.85 122.14-4.9 123.84-6.2L123.84-6.2 124.39-6.1 125.04-5.2Q123.49-3.75 121.66-2.43 119.84-1.1 117.81-0.25 115.79 0.6 113.64 0.6L113.64 0.6Q111.14 0.6 109.52-0.45 107.89-1.5 106.99-3.23 106.09-4.95 105.72-7.08 105.34-9.2 105.34-11.3L105.34-11.3Q105.34-13.5 105.89-15.6 106.44-17.7 107.89-19.4L107.89-19.4Q109.74-21.55 112.31-22.73 114.89-23.9 117.74-23.9L117.74-23.9Q120.99-23.9 122.91-21.9 124.84-19.9 124.84-17L124.84-17Q124.84-16.55 124.52-16.35 124.19-16.15 123.79-15.95ZM111.79-19.8L111.79-19.8Q110.34-18.25 109.91-16.55 109.49-14.85 109.49-13L109.49-13Q109.49-12.8 109.52-12.58 109.54-12.35 109.59-12.1L109.59-12.1 109.79-11.9 119.89-15.9Q120.14-16 120.34-16.3 120.54-16.6 120.54-17.2L120.54-17.2Q120.54-18.25 119.99-19.35 119.44-20.45 118.41-21.18 117.39-21.9 115.99-21.9L115.99-21.9Q114.74-21.9 113.66-21.35 112.59-20.8 111.79-19.8ZM146.34-19.4L143.64-16.95 143.04-17.2Q142.84-18.25 142.24-19.18 141.64-20.1 140.39-20.1L140.39-20.1Q138.84-20.1 137.89-19.05 136.94-18 136.54-17L136.54-17Q136.19-16.2 136.14-14.7 136.09-13.2 136.14-11.53 136.19-9.85 136.19-8.5L136.19-8.5Q136.19-4.75 136.34-0.9L136.34-0.9 132.84 0.15 132.09-0.3Q132.34-2.95 132.51-6.05 132.69-9.15 132.69-12.15L132.69-12.15Q132.69-14.1 132.64-16.05 132.59-18 132.14-19.3 131.69-20.6 130.54-20.6L130.54-20.6Q129.69-20.6 128.64-20.1 127.59-19.6 126.64-19.05L126.64-19.05 126.04-19.9Q127.04-20.7 128.21-21.55 129.39-22.4 130.59-23.03 131.79-23.65 132.79-23.65L132.79-23.65Q134.49-23.65 135.34-22.65 136.19-21.65 136.39-20.05L136.39-20.05 136.89-19.85Q137.64-20.55 138.56-21.38 139.49-22.2 140.49-22.78 141.49-23.35 142.39-23.35L142.39-23.35Q145.94-23.35 146.34-19.4L146.34-19.4ZM175.38-5.8L175.83-5.7 176.38-4.8Q174.08-2.5 171.31-0.78 168.53 0.95 165.18 0.95L165.18 0.95Q162.13 0.95 160.38-0.18 158.63-1.3 157.81-3.1 156.98-4.9 156.76-6.95 156.53-9 156.53-10.85L156.53-10.85Q156.53-14.6 158.16-17.53 159.78-20.45 162.63-22.1 165.48-23.75 169.18-23.75L169.18-23.75Q171.63-23.75 173.21-22.38 174.78-21 174.98-18.85L174.98-18.85 172.28-16.2 171.43-16.5Q171.08-19 169.93-20.4 168.78-21.8 167.18-21.8L167.18-21.8Q165.08-21.8 163.63-20.38 162.18-18.95 161.43-16.78 160.68-14.6 160.68-12.4L160.68-12.4Q160.68-10.8 160.98-9.05 161.28-7.3 162.03-5.78 162.78-4.25 164.16-3.3 165.53-2.35 167.73-2.35L167.73-2.35Q169.93-2.35 171.83-3.38 173.73-4.4 175.38-5.8L175.38-5.8ZM188.98 0.7L188.98 0.7Q185.53 0.7 183.46-0.83 181.38-2.35 180.43-4.75 179.48-7.15 179.28-9.8L179.28-9.8Q179.28-12.4 179.76-15 180.23-17.6 182.03-19.55L182.03-19.55Q183.78-21.5 186.31-22.38 188.83-23.25 191.43-23.25L191.43-23.25Q195.13-23.25 197.28-21.6 199.43-19.95 200.38-17.35 201.33-14.75 201.33-11.95L201.33-11.95Q201.33-9.5 200.71-7.15 200.08-4.8 198.43-2.95L198.43-2.95Q196.68-0.95 194.16-0.13 191.63 0.7 188.98 0.7ZM183.98-15.8L183.98-15.8Q183.78-14.85 183.68-13.9 183.58-12.95 183.58-11.95L183.58-11.95Q183.58-10.4 183.88-8.55 184.18-6.7 184.91-5.08 185.63-3.45 186.96-2.4 188.28-1.35 190.33-1.35L190.33-1.35Q192.38-1.35 193.66-2.25 194.93-3.15 195.63-4.6 196.33-6.05 196.61-7.75 196.88-9.45 196.88-11L196.88-11Q196.88-12.55 196.63-14.33 196.38-16.1 195.71-17.7 195.03-19.3 193.71-20.3 192.38-21.3 190.28-21.3L190.28-21.3Q188.28-21.3 186.48-19.95 184.68-18.6 183.98-15.8ZM213.48-0.9L213.48-0.9 209.98 0.3 209.23-0.05Q209.28-1 209.35-2.85 209.43-4.7 209.5-6.93 209.58-9.15 209.63-11.28 209.68-13.4 209.68-14.9L209.68-14.9Q209.68-17.4 209.38-19.03 209.08-20.65 207.83-20.65L207.83-20.65Q207.03-20.65 206.1-20.13 205.18-19.6 204.08-18.9L204.08-18.9 203.23-20Q204.28-20.75 205.48-21.58 206.68-22.4 207.88-22.98 209.08-23.55 209.98-23.55L209.98-23.55Q211.88-23.55 212.63-22.55 213.38-21.55 213.58-20.15L213.58-20.15 213.98-19.85Q216.08-21.15 218.55-22.3 221.03-23.45 223.43-23.45L223.43-23.45Q224.53-23.45 225.55-23.15 226.58-22.85 227.28-22L227.28-22Q227.78-21.4 227.98-19.83 228.18-18.25 228.23-16.32 228.28-14.4 228.28-12.8L228.28-12.8Q228.28-9.05 228.3-6.9 228.33-4.75 228.8-3.88 229.28-3 230.68-3L230.68-3Q231.53-3 232.63-3.65 233.73-4.3 234.68-5L234.68-5 235.33-5 235.78-3.95Q234.08-2.25 231.9-0.88 229.73 0.5 227.93 0.5L227.93 0.5Q225.88 0.5 225.1-0.8 224.33-2.1 224.33-3.9L224.33-3.9 224.58-12.45Q224.58-16.2 223.65-18.35 222.73-20.5 220.08-20.5L220.08-20.5Q218.38-20.5 216.68-19.53 214.98-18.55 213.63-17.45L213.63-17.45Q213.53-14.75 213.43-11.65 213.33-8.55 213.33-5.8L213.33-5.8Q213.33-4.75 213.38-3.58 213.43-2.4 213.48-0.9ZM245.03-0.9L245.03-0.9 241.53 0.3 240.78-0.05Q240.83-1 240.9-2.85 240.98-4.7 241.05-6.93 241.13-9.15 241.18-11.28 241.23-13.4 241.23-14.9L241.23-14.9Q241.23-17.4 240.93-19.03 240.63-20.65 239.38-20.65L239.38-20.65Q238.58-20.65 237.65-20.13 236.73-19.6 235.63-18.9L235.63-18.9 234.78-20Q235.83-20.75 237.03-21.58 238.23-22.4 239.43-22.98 240.63-23.55 241.53-23.55L241.53-23.55Q243.43-23.55 244.18-22.55 244.93-21.55 245.13-20.15L245.13-20.15 245.53-19.85Q247.63-21.15 250.1-22.3 252.58-23.45 254.98-23.45L254.98-23.45Q256.08-23.45 257.1-23.15 258.13-22.85 258.83-22L258.83-22Q259.33-21.4 259.53-19.83 259.73-18.25 259.78-16.32 259.83-14.4 259.83-12.8L259.83-12.8Q259.83-9.05 259.85-6.9 259.88-4.75 260.35-3.88 260.83-3 262.23-3L262.23-3Q263.08-3 264.18-3.65 265.28-4.3 266.23-5L266.23-5 266.88-5 267.33-3.95Q265.63-2.25 263.45-0.88 261.28 0.5 259.48 0.5L259.48 0.5Q257.43 0.5 256.65-0.8 255.88-2.1 255.88-3.9L255.88-3.9 256.13-12.45Q256.13-16.2 255.2-18.35 254.28-20.5 251.63-20.5L251.63-20.5Q249.93-20.5 248.23-19.53 246.53-18.55 245.18-17.45L245.18-17.45Q245.08-14.75 244.98-11.65 244.88-8.55 244.88-5.8L244.88-5.8Q244.88-4.75 244.93-3.58 244.98-2.4 245.03-0.9ZM287.67-15.95L287.67-15.95 273.57-9.85Q273.72-8.3 274.4-6.65 275.07-5 276.45-3.9 277.82-2.8 280.02-2.8L280.02-2.8Q282.07-2.8 284.05-3.85 286.02-4.9 287.72-6.2L287.72-6.2 288.27-6.1 288.92-5.2Q287.37-3.75 285.55-2.43 283.72-1.1 281.7-0.25 279.67 0.6 277.52 0.6L277.52 0.6Q275.02 0.6 273.4-0.45 271.77-1.5 270.87-3.23 269.97-4.95 269.6-7.08 269.22-9.2 269.22-11.3L269.22-11.3Q269.22-13.5 269.77-15.6 270.32-17.7 271.77-19.4L271.77-19.4Q273.62-21.55 276.2-22.73 278.77-23.9 281.62-23.9L281.62-23.9Q284.87-23.9 286.8-21.9 288.72-19.9 288.72-17L288.72-17Q288.72-16.55 288.4-16.35 288.07-16.15 287.67-15.95ZM275.67-19.8L275.67-19.8Q274.22-18.25 273.8-16.55 273.37-14.85 273.37-13L273.37-13Q273.37-12.8 273.4-12.58 273.42-12.35 273.47-12.1L273.47-12.1 273.67-11.9 283.77-15.9Q284.02-16 284.22-16.3 284.42-16.6 284.42-17.2L284.42-17.2Q284.42-18.25 283.87-19.35 283.32-20.45 282.3-21.18 281.27-21.9 279.87-21.9L279.87-21.9Q278.62-21.9 277.55-21.35 276.47-20.8 275.67-19.8ZM311.17-5.8L311.62-5.7 312.17-4.8Q309.87-2.5 307.1-0.78 304.32 0.95 300.97 0.95L300.97 0.95Q297.92 0.95 296.17-0.18 294.42-1.3 293.6-3.1 292.77-4.9 292.55-6.95 292.32-9 292.32-10.85L292.32-10.85Q292.32-14.6 293.95-17.53 295.57-20.45 298.42-22.1 301.27-23.75 304.97-23.75L304.97-23.75Q307.42-23.75 309-22.38 310.57-21 310.77-18.85L310.77-18.85 308.07-16.2 307.22-16.5Q306.87-19 305.72-20.4 304.57-21.8 302.97-21.8L302.97-21.8Q300.87-21.8 299.42-20.38 297.97-18.95 297.22-16.78 296.47-14.6 296.47-12.4L296.47-12.4Q296.47-10.8 296.77-9.05 297.07-7.3 297.82-5.78 298.57-4.25 299.95-3.3 301.32-2.35 303.52-2.35L303.52-2.35Q305.72-2.35 307.62-3.38 309.52-4.4 311.17-5.8L311.17-5.8ZM318.72-29.1L318.72-29.1 322.92-30.55 323.27-30.3Q323.07-28.15 322.92-26.18 322.77-24.2 322.72-22L322.72-22 323.02-21.75 329.42-21.75 329.67-21.55 329.27-20.25 328.97-20 323.02-20 322.72-19.7 322.72-10.25Q322.72-8.5 322.94-6.75 323.17-5 323.94-3.88 324.72-2.75 326.27-2.75L326.27-2.75Q327.22-2.75 328.47-3.43 329.72-4.1 330.82-4.8L330.82-4.8 331.42-4.7 331.77-3.95Q330.07-2.35 327.92-0.95 325.77 0.45 323.57 0.45L323.57 0.45Q322.72 0.45 321.69 0.13 320.67-0.2 319.97-1.1L319.97-1.1Q319.47-1.8 319.22-2.6 318.97-3.4 318.89-5.1 318.82-6.8 318.82-10.15L318.82-10.15 318.82-19.65 318.52-20 312.92-20 312.67-20.25 313.02-21.45 313.32-21.75 318.52-21.75 318.82-22.05Q318.82-23.95 318.82-26.05 318.82-28.15 318.72-29.1Z" opacity="1" transform="matrix(1,0,0,1,0,0)" fill="#000000" class="wordmark-text-0" data-fill-palette-color="quaternary" id="text-0"></path></svg></g></svg></g><g transform="matrix(1,0,0,1,0,28.67646869485812)"><svg viewBox="0 0 213.1584412271571 14.337352762631358" height="14.337352762631358" width="213.1584412271571"><g transform="matrix(1,0,0,1,0,0)"><svg width="213.1584412271571" viewBox="4.65 -35.5 536.71 36.1" height="14.337352762631358" data-palette-color="#1ebbd7"><path d="M20.5 0L4.65 0 4.65-34.9 19-34.9Q23.3-34.9 25.8-32.45 28.3-30 28.3-25.9L28.3-25.9Q28.3-23.3 27.38-21.75 26.45-20.2 25.13-19.45 23.8-18.7 22.65-18.5L22.65-18.5 22.65-18.2Q23.6-18.15 24.78-17.68 25.95-17.2 27.03-16.25 28.1-15.3 28.8-13.8 29.5-12.3 29.5-10.1L29.5-10.1Q29.5-7.25 28.33-4.95 27.15-2.65 25.13-1.33 23.1 0 20.5 0L20.5 0ZM8.85-16.2L8.85-3.7 19.2-3.7Q21-3.7 22.3-4.33 23.6-4.95 24.3-6.15 25-7.35 25-9.1L25-9.1 25-10.8Q25-12.55 24.3-13.75 23.6-14.95 22.3-15.58 21-16.2 19.2-16.2L19.2-16.2 8.85-16.2ZM8.85-31.2L8.85-19.8 18.5-19.8Q20.15-19.8 21.33-20.38 22.5-20.95 23.15-22.03 23.8-23.1 23.8-24.65L23.8-24.65 23.8-26.35Q23.8-27.9 23.15-28.98 22.5-30.05 21.33-30.63 20.15-31.2 18.5-31.2L18.5-31.2 8.85-31.2ZM66.61 0.6L66.61 0.6Q63.11 0.6 60.51-1.07 57.91-2.75 56.46-5.78 55.01-8.8 55.01-12.9L55.01-12.9Q55.01-17 56.46-20.03 57.91-23.05 60.51-24.73 63.11-26.4 66.61-26.4L66.61-26.4Q70.06-26.4 72.56-24.78 75.06-23.15 76.41-20.3 77.76-17.45 77.76-13.8L77.76-13.8 77.76-11.9 59.21-11.9 59.21-10.7Q59.21-7.35 61.23-5.13 63.26-2.9 66.86-2.9L66.86-2.9Q69.31-2.9 71.13-4.05 72.96-5.2 73.96-7.35L73.96-7.35 76.81-5.3Q75.56-2.7 72.91-1.05 70.26 0.6 66.61 0.6ZM59.21-15.25L59.21-14.9 73.46-14.9 73.46-15.45Q73.46-17.75 72.61-19.45 71.76-21.15 70.21-22.1 68.66-23.05 66.61-23.05L66.61-23.05Q64.46-23.05 62.78-22.05 61.11-21.05 60.16-19.28 59.21-17.5 59.21-15.25L59.21-15.25ZM115.06 0L110.06 0Q108.01 0 106.91-1.2 105.81-2.4 105.81-4.25L105.81-4.25 105.81-22.3 101.56-22.3 101.56-25.8 103.96-25.8Q105.26-25.8 105.74-26.33 106.21-26.85 106.21-28.15L106.21-28.15 106.21-32.95 109.81-32.95 109.81-25.8 115.46-25.8 115.46-22.3 109.81-22.3 109.81-3.5 115.06-3.5 115.06 0ZM152.62 0L147.62 0Q145.57 0 144.47-1.2 143.37-2.4 143.37-4.25L143.37-4.25 143.37-22.3 139.12-22.3 139.12-25.8 141.52-25.8Q142.82-25.8 143.29-26.33 143.77-26.85 143.77-28.15L143.77-28.15 143.77-32.95 147.37-32.95 147.37-25.8 153.02-25.8 153.02-22.3 147.37-22.3 147.37-3.5 152.62-3.5 152.62 0ZM189.17 0.6L189.17 0.6Q185.67 0.6 183.07-1.07 180.47-2.75 179.02-5.78 177.57-8.8 177.57-12.9L177.57-12.9Q177.57-17 179.02-20.03 180.47-23.05 183.07-24.73 185.67-26.4 189.17-26.4L189.17-26.4Q192.62-26.4 195.12-24.78 197.62-23.15 198.97-20.3 200.32-17.45 200.32-13.8L200.32-13.8 200.32-11.9 181.77-11.9 181.77-10.7Q181.77-7.35 183.8-5.13 185.82-2.9 189.42-2.9L189.42-2.9Q191.87-2.9 193.7-4.05 195.52-5.2 196.52-7.35L196.52-7.35 199.37-5.3Q198.12-2.7 195.47-1.05 192.82 0.6 189.17 0.6ZM181.77-15.25L181.77-14.9 196.02-14.9 196.02-15.45Q196.02-17.75 195.17-19.45 194.32-21.15 192.77-22.1 191.22-23.05 189.17-23.05L189.17-23.05Q187.02-23.05 185.35-22.05 183.67-21.05 182.72-19.28 181.77-17.5 181.77-15.25L181.77-15.25ZM230.93 0L226.93 0 226.93-25.8 230.93-25.8 230.93-21.05 231.18-21.05Q231.63-22.3 232.58-23.38 233.53-24.45 235.03-25.13 236.53-25.8 238.63-25.8L238.63-25.8 240.18-25.8 240.18-21.8 237.83-21.8Q235.68-21.8 234.13-21.23 232.58-20.65 231.75-19.7 230.93-18.75 230.93-17.5L230.93-17.5 230.93 0ZM309.79 0.6L309.79 0.6Q305.39 0.6 302.24-1.43 299.09-3.45 297.41-7.43 295.74-11.4 295.74-17.25L295.74-17.25Q295.74-23.1 297.41-27.18 299.09-31.25 302.24-33.38 305.39-35.5 309.79-35.5L309.79-35.5Q314.14-35.5 317.14-33.5 320.14-31.5 321.79-27.85L321.79-27.85 318.39-25.8Q317.34-28.5 315.19-30.13 313.04-31.75 309.79-31.75L309.79-31.75Q305.29-31.75 302.76-28.48 300.24-25.2 300.24-19.85L300.24-19.85 300.24-14.65Q300.24-9.3 302.76-6.23 305.29-3.15 309.79-3.15L309.79-3.15Q313.14-3.15 315.39-4.88 317.64-6.6 318.69-9.45L318.69-9.45 322.04-7.35Q320.39-3.7 317.26-1.55 314.14 0.6 309.79 0.6ZM354.74 0.6L354.74 0.6Q350.64 0.6 348.37-1.5 346.09-3.6 346.09-7.2L346.09-7.2Q346.09-9.65 347.29-11.33 348.49-13 350.92-13.88 353.34-14.75 357.09-14.75L357.09-14.75 362.19-14.75 362.19-17.3Q362.19-20.05 360.69-21.5 359.19-22.95 356.09-22.95L356.09-22.95Q353.79-22.95 352.19-21.9 350.59-20.85 349.54-19.1L349.54-19.1 347.14-21.35Q348.19-23.4 350.49-24.9 352.79-26.4 356.29-26.4L356.29-26.4Q360.94-26.4 363.57-24.1 366.19-21.8 366.19-17.7L366.19-17.7 366.19-3.5 369.14-3.5 369.14 0 366.89 0Q364.74 0 363.74-1.1 362.74-2.2 362.49-3.9L362.49-3.9 362.44-4.2 362.19-4.2Q361.39-1.85 359.42-0.63 357.44 0.6 354.74 0.6ZM355.39-2.8L355.39-2.8Q357.39-2.8 358.92-3.43 360.44-4.05 361.32-5.13 362.19-6.2 362.19-7.5L362.19-7.5 362.19-11.75 356.89-11.75Q353.49-11.75 351.89-10.75 350.29-9.75 350.29-7.85L350.29-7.85 350.29-6.8Q350.29-4.9 351.69-3.85 353.09-2.8 355.39-2.8ZM398.85 0L394.85 0 394.85-25.8 398.85-25.8 398.85-21.05 399.1-21.05Q399.55-22.3 400.5-23.38 401.45-24.45 402.95-25.13 404.45-25.8 406.55-25.8L406.55-25.8 408.1-25.8 408.1-21.8 405.75-21.8Q403.6-21.8 402.05-21.23 400.5-20.65 399.67-19.7 398.85-18.75 398.85-17.5L398.85-17.5 398.85 0ZM442.9 0.6L442.9 0.6Q439.4 0.6 436.8-1.07 434.2-2.75 432.75-5.78 431.3-8.8 431.3-12.9L431.3-12.9Q431.3-17 432.75-20.03 434.2-23.05 436.8-24.73 439.4-26.4 442.9-26.4L442.9-26.4Q446.35-26.4 448.85-24.78 451.35-23.15 452.7-20.3 454.05-17.45 454.05-13.8L454.05-13.8 454.05-11.9 435.5-11.9 435.5-10.7Q435.5-7.35 437.53-5.13 439.55-2.9 443.15-2.9L443.15-2.9Q445.6-2.9 447.43-4.05 449.25-5.2 450.25-7.35L450.25-7.35 453.1-5.3Q451.85-2.7 449.2-1.05 446.55 0.6 442.9 0.6ZM435.5-15.25L435.5-14.9 449.75-14.9 449.75-15.45Q449.75-17.75 448.9-19.45 448.05-21.15 446.5-22.1 444.95-23.05 442.9-23.05L442.9-23.05Q440.75-23.05 439.08-22.05 437.4-21.05 436.45-19.28 435.5-17.5 435.5-15.25L435.5-15.25ZM490.36 0.6L490.36 0.6Q486.86 0.6 484.26-1.07 481.66-2.75 480.21-5.78 478.76-8.8 478.76-12.9L478.76-12.9Q478.76-17 480.21-20.03 481.66-23.05 484.26-24.73 486.86-26.4 490.36-26.4L490.36-26.4Q493.81-26.4 496.31-24.78 498.81-23.15 500.16-20.3 501.51-17.45 501.51-13.8L501.51-13.8 501.51-11.9 482.96-11.9 482.96-10.7Q482.96-7.35 484.98-5.13 487.01-2.9 490.61-2.9L490.61-2.9Q493.06-2.9 494.88-4.05 496.71-5.2 497.71-7.35L497.71-7.35 500.56-5.3Q499.31-2.7 496.66-1.05 494.01 0.6 490.36 0.6ZM482.96-15.25L482.96-14.9 497.21-14.9 497.21-15.45Q497.21-17.75 496.36-19.45 495.51-21.15 493.96-22.1 492.41-23.05 490.36-23.05L490.36-23.05Q488.21-23.05 486.53-22.05 484.86-21.05 483.91-19.28 482.96-17.5 482.96-15.25L482.96-15.25ZM532.11 0L528.11 0 528.11-25.8 532.11-25.8 532.11-21.05 532.36-21.05Q532.81-22.3 533.76-23.38 534.71-24.45 536.21-25.13 537.71-25.8 539.81-25.8L539.81-25.8 541.36-25.8 541.36-21.8 539.01-21.8Q536.86-21.8 535.31-21.23 533.76-20.65 532.94-19.7 532.11-18.75 532.11-17.5L532.11-17.5 532.11 0Z" opacity="1" transform="matrix(1,0,0,1,0,0)" fill="#000000" class="slogan-text-1" data-fill-palette-color="quaternary" id="text-1"></path></svg></g></svg></g></svg></g></svg></g><g transform="matrix(1,0,0,1,78.41279292218267,0)"><svg viewBox="0 0 56.332855382791756 59.44510125425046" height="59.44510125425046" width="56.332855382791756"><g><svg xmlns="http://www.w3.org/2000/svg" xmlns:xlink="http://www.w3.org/1999/xlink" version="1.1" x="0" y="0" viewBox="5.93917499276149 6.5 82.1608250072385 86.70000000000002" style="enable-background:new 0 0 100 100;" xml:space="preserve" height="59.44510125425046" width="56.332855382791756" class="icon-icon-0" data-fill-palette-color="quaternary" id="icon-0"><g fill="#1ebbd7" data-fill-palette-color="quaternary"><g fill="#1ebbd7" data-fill-palette-color="quaternary"><g fill="#1ebbd7" data-fill-palette-color="quaternary"><g fill="#1ebbd7" data-fill-palette-color="quaternary"><g fill="#1ebbd7" data-fill-palette-color="quaternary"><path class="" d="M65.2 41.7c-0.4 0-0.8-0.2-1-0.5l-5.3-5.3-3.1 12 13.4 4.3 0.1 0c0.1 0 0.1 0 0.2 0.1l0 0c0.1 0 0.1 0.1 0.2 0.1l0.1 0.1c0 0 0.1 0.1 0.1 0.1l0.2 0.3c0 0 0 0.1 0.1 0.1l0.1 0.4v14.2c0 0.7-0.6 1.3-1.3 1.3h-5.5c-0.7 0-1.3-0.6-1.3-1.3v-7.6l-22-7.9 0 0-0.4-0.1h0c-0.4-0.3-0.7-0.8-0.6-1.3l0-0.2 2.7-17.3-8.5 4.2-3.2 9.4c-0.2 0.7-0.9 1-1.6 0.8l-3.7-1.3c-0.7-0.2-1-0.9-0.8-1.6l4.6-13.4c0.1-0.4 0.4-0.7 0.8-0.8l0 0h0c0.1-0.1 0.2-0.1 0.3-0.2l14.2-6.9c0.2-0.1 0.4-0.1 0.6-0.1 0.1 0 0.2 0 0.2 0l14.7 2.3c0.1 0 0.2 0 0.3 0.1 0 0 0 0 0 0 0 0 0 0 0.1 0 0.1 0.1 0.3 0.1 0.4 0.2l9.9 9.9c0 0 0.1 0.1 0.1 0.1h7.1c0.7 0 1.3 0.6 1.3 1.3v3.4c0 0.7-0.6 1.3-1.3 1.3H65.2z" fill="#000000" data-fill-palette-color="quaternary"></path><path class="" d="M88.1 73.9v2.6c0 0.5-0.4 0.9-0.9 0.9H62.8c-0.5 0-0.9-0.4-0.9-0.9v-2.6c0-0.5 0.4-0.9 0.9-0.9h24.3C87.7 73 88.1 73.4 88.1 73.9z" fill="#000000" data-fill-palette-color="quaternary"></path><path class="" d="M74.4 81.6v2.6c0 0.5-0.4 0.9-0.9 0.9H49.2c-0.5 0-0.9-0.4-0.9-0.9v-2.6c0-0.5 0.4-0.9 0.9-0.9h24.3C74 80.7 74.4 81.1 74.4 81.6z" fill="#000000" data-fill-palette-color="quaternary"></path><path class="" d="M60.8 89.7v2.6c0 0.5-0.4 0.9-0.9 0.9H35.6c-0.5 0-0.9-0.4-0.9-0.9v-2.6c0-0.5 0.4-0.9 0.9-0.9h24.3C60.4 88.8 60.8 89.2 60.8 89.7z" fill="#000000" data-fill-palette-color="quaternary"></path><path class="" d="M53.8 6.5c4.2 0 7.6 3.4 7.6 7.6 0 4.2-3.4 7.6-7.6 7.6-4.2 0-7.6-3.4-7.6-7.6C46.2 10 49.6 6.5 53.8 6.5z" fill="#000000" data-fill-palette-color="quaternary"></path><path class="" d="M51.9 59.8l-2.5 11.4c0 0.1-0.1 0.3-0.2 0.4 0 0 0 0 0 0.1 0 0-0.1 0.1-0.1 0.1l-8.6 11c-0.4 0.5-1.2 0.6-1.8 0.2l-4.2-3.4c-0.5-0.4-0.6-1.2-0.2-1.8l5.6-7.2 3-14.1L51.9 59.8z" fill="#000000" data-fill-palette-color="quaternary"></path><path class="" d="M36.9 57.3c0.7 0.2 1 1 0.8 1.6L32.9 72c-0.2 0.7-1 1-1.6 0.8L6.8 63.9c-0.7-0.2-1-1-0.8-1.6l4.8-13.2c0.2-0.7 1-1 1.6-0.8L36.9 57.3z" fill="#000000" data-fill-palette-color="quaternary"></path><path class="" d="M21.5 46.6l9.3 3.4c0.2 0.1 0.4 0.3 0.3 0.6l-0.8 2.2c-0.1 0.2-0.4 0.4-0.6 0.3l-9.3-3.4c-0.2-0.1-0.4-0.3-0.3-0.6l0.8-2.2C21.1 46.6 21.3 46.5 21.5 46.6z" fill="#000000" data-fill-palette-color="quaternary"></path></g></g></g></g></g></svg></g></svg></g><g></g></svg></g></svg></g></svg></g></svg></g><defs></defs></svg><rect width="342.85155851775386" height="342.85155851775386" fill="none" stroke="none" visibility="hidden"></rect></g></svg></g></svg>